<mxfile host="app.diagrams.net" modified="2023-03-25T17:00:05.507Z" agent="Mozilla/5.0 (X11; Linux x86_64) AppleWebKit/537.36 (KHTML, like Gecko) Chrome/111.0.0.0 Safari/537.36" etag="WNrrFT_87VnbHaA27tBU" version="21.1.1" type="github">
  <diagram name="Page-1" id="XJa_YqYrmM3YX7fNveG3">
    <mxGraphModel dx="1434" dy="736" grid="1" gridSize="10" guides="1" tooltips="1" connect="1" arrows="1" fold="1" page="1" pageScale="1" pageWidth="850" pageHeight="1100" math="0" shadow="0">
      <root>
        <mxCell id="0" />
        <mxCell id="1" parent="0" />
        <mxCell id="xhZJJGkNVvbvQg2QOkUd-3" value="" style="edgeStyle=orthogonalEdgeStyle;rounded=0;orthogonalLoop=1;jettySize=auto;html=1;labelBackgroundColor=none;strokeColor=#0B4D6A;fontColor=default;align=center;verticalAlign=middle;fontSize=13;" edge="1" parent="1" source="xhZJJGkNVvbvQg2QOkUd-1" target="xhZJJGkNVvbvQg2QOkUd-2">
          <mxGeometry relative="1" as="geometry" />
        </mxCell>
        <mxCell id="xhZJJGkNVvbvQg2QOkUd-1" value="&lt;b style=&quot;font-size: 13px;&quot;&gt;Identify and calculate the percentage of the missing values in each attribute&lt;/b&gt;" style="rounded=1;whiteSpace=wrap;html=1;labelBackgroundColor=none;fillColor=#09555B;strokeColor=#BAC8D3;fontColor=#EEEEEE;align=center;verticalAlign=middle;fontSize=13;" vertex="1" parent="1">
          <mxGeometry x="120" y="100" width="460" height="40" as="geometry" />
        </mxCell>
        <mxCell id="xhZJJGkNVvbvQg2QOkUd-5" value="" style="edgeStyle=orthogonalEdgeStyle;rounded=0;orthogonalLoop=1;jettySize=auto;html=1;labelBackgroundColor=none;strokeColor=#0B4D6A;fontColor=default;align=center;verticalAlign=middle;fontSize=13;" edge="1" parent="1" source="xhZJJGkNVvbvQg2QOkUd-2" target="xhZJJGkNVvbvQg2QOkUd-4">
          <mxGeometry relative="1" as="geometry" />
        </mxCell>
        <mxCell id="xhZJJGkNVvbvQg2QOkUd-2" value="&lt;h3 style=&quot;border-color: var(--border-color); box-sizing: unset; line-height: var(--jp-content-heading-line-height); margin-top: calc(0.5 * var(--jp-content-heading-margin-top)); font-size: 13px; font-family: -apple-system, BlinkMacSystemFont, &amp;quot;Segoe UI&amp;quot;, Helvetica, Arial, sans-serif, &amp;quot;Apple Color Emoji&amp;quot;, &amp;quot;Segoe UI Emoji&amp;quot;, &amp;quot;Segoe UI Symbol&amp;quot;;&quot; id=&quot;TASK-1:-Calculate-the-number-of-launches-on-each-site&quot;&gt;&lt;font style=&quot;border-color: var(--border-color); font-size: 13px;&quot; color=&quot;#ffffff&quot;&gt;&amp;nbsp;Calculate the number of launches on each site&lt;/font&gt;&lt;/h3&gt;" style="rounded=1;whiteSpace=wrap;html=1;labelBackgroundColor=none;fillColor=#09555B;strokeColor=#BAC8D3;fontColor=#EEEEEE;align=center;verticalAlign=middle;fontSize=13;" vertex="1" parent="1">
          <mxGeometry x="175" y="160" width="350" height="40" as="geometry" />
        </mxCell>
        <mxCell id="xhZJJGkNVvbvQg2QOkUd-9" value="" style="edgeStyle=orthogonalEdgeStyle;rounded=0;orthogonalLoop=1;jettySize=auto;html=1;labelBackgroundColor=none;strokeColor=#0B4D6A;fontColor=default;align=center;verticalAlign=middle;fontSize=13;" edge="1" parent="1" source="xhZJJGkNVvbvQg2QOkUd-4" target="xhZJJGkNVvbvQg2QOkUd-8">
          <mxGeometry relative="1" as="geometry" />
        </mxCell>
        <mxCell id="xhZJJGkNVvbvQg2QOkUd-4" value="&lt;h3 style=&quot;border-color: var(--border-color); box-sizing: unset; line-height: var(--jp-content-heading-line-height); margin-top: calc(0.5 * var(--jp-content-heading-margin-top)); font-size: 13px; font-family: -apple-system, BlinkMacSystemFont, &amp;quot;Segoe UI&amp;quot;, Helvetica, Arial, sans-serif, &amp;quot;Apple Color Emoji&amp;quot;, &amp;quot;Segoe UI Emoji&amp;quot;, &amp;quot;Segoe UI Symbol&amp;quot;;&quot; id=&quot;TASK-1:-Calculate-the-number-of-launches-on-each-site&quot;&gt;&lt;font style=&quot;border-color: var(--border-color); font-size: 13px;&quot; color=&quot;#ffffff&quot;&gt;&amp;nbsp;Calculate the number and occurence of each orbit&lt;/font&gt;&lt;/h3&gt;" style="rounded=1;whiteSpace=wrap;html=1;labelBackgroundColor=none;fillColor=#09555B;strokeColor=#BAC8D3;fontColor=#EEEEEE;align=center;verticalAlign=middle;fontSize=13;" vertex="1" parent="1">
          <mxGeometry x="182.5" y="220" width="335" height="40" as="geometry" />
        </mxCell>
        <mxCell id="xhZJJGkNVvbvQg2QOkUd-11" value="" style="edgeStyle=orthogonalEdgeStyle;rounded=0;orthogonalLoop=1;jettySize=auto;html=1;labelBackgroundColor=none;strokeColor=#0B4D6A;fontColor=default;align=center;verticalAlign=middle;fontSize=13;" edge="1" parent="1" source="xhZJJGkNVvbvQg2QOkUd-8" target="xhZJJGkNVvbvQg2QOkUd-10">
          <mxGeometry relative="1" as="geometry" />
        </mxCell>
        <mxCell id="xhZJJGkNVvbvQg2QOkUd-8" value="&lt;h3 style=&quot;border-color: var(--border-color); box-sizing: unset; line-height: var(--jp-content-heading-line-height); margin-top: calc(0.5 * var(--jp-content-heading-margin-top)); font-size: 13px; font-family: -apple-system, BlinkMacSystemFont, &amp;quot;Segoe UI&amp;quot;, Helvetica, Arial, sans-serif, &amp;quot;Apple Color Emoji&amp;quot;, &amp;quot;Segoe UI Emoji&amp;quot;, &amp;quot;Segoe UI Symbol&amp;quot;;&quot; id=&quot;TASK-1:-Calculate-the-number-of-launches-on-each-site&quot;&gt;&lt;font style=&quot;border-color: var(--border-color); font-size: 13px;&quot; color=&quot;#ffffff&quot;&gt;&amp;nbsp;Create a landing outcome label from Outcome column&lt;/font&gt;&lt;/h3&gt;" style="whiteSpace=wrap;html=1;rounded=1;labelBackgroundColor=none;fillColor=#09555B;strokeColor=#BAC8D3;fontColor=#EEEEEE;align=center;verticalAlign=middle;fontSize=13;" vertex="1" parent="1">
          <mxGeometry x="188.75" y="280" width="322.5" height="60" as="geometry" />
        </mxCell>
        <mxCell id="xhZJJGkNVvbvQg2QOkUd-10" value="&lt;b style=&quot;font-size: 13px;&quot;&gt;Determine the success rate and download dataset&lt;/b&gt;" style="whiteSpace=wrap;html=1;rounded=1;labelBackgroundColor=none;fillColor=#09555B;strokeColor=#BAC8D3;fontColor=#EEEEEE;align=center;verticalAlign=middle;fontSize=13;" vertex="1" parent="1">
          <mxGeometry x="190" y="360" width="320" height="60" as="geometry" />
        </mxCell>
        <mxCell id="xhZJJGkNVvbvQg2QOkUd-12" value="&lt;h3 style=&quot;border-color: var(--border-color); font-style: normal; font-variant-ligatures: normal; font-variant-caps: normal; letter-spacing: normal; orphans: 2; text-indent: 0px; text-transform: none; widows: 2; word-spacing: 0px; -webkit-text-stroke-width: 0px; text-decoration-thickness: initial; text-decoration-style: initial; text-decoration-color: initial; box-sizing: unset; line-height: var(--jp-content-heading-line-height); margin-top: calc(0.5 * var(--jp-content-heading-margin-top)); font-size: var(--jp-content-font-size3); color: rgba(0, 0, 0, 0.87); font-family: -apple-system, BlinkMacSystemFont, &amp;quot;Segoe UI&amp;quot;, Helvetica, Arial, sans-serif, &amp;quot;Apple Color Emoji&amp;quot;, &amp;quot;Segoe UI Emoji&amp;quot;, &amp;quot;Segoe UI Symbol&amp;quot;; text-align: start; background-color: rgb(255, 255, 255);&quot; id=&quot;TASK-1:-Calculate-the-number-of-launches-on-each-site&quot;&gt;&lt;br&gt;&lt;/h3&gt;" style="text;whiteSpace=wrap;html=1;fontColor=#EEEEEE;labelBackgroundColor=none;" vertex="1" parent="1">
          <mxGeometry x="560" y="150" width="300" height="50" as="geometry" />
        </mxCell>
        <mxCell id="xhZJJGkNVvbvQg2QOkUd-13" value="&lt;h3 style=&quot;border-color: var(--border-color); font-style: normal; font-variant-ligatures: normal; font-variant-caps: normal; letter-spacing: normal; orphans: 2; text-indent: 0px; text-transform: none; widows: 2; word-spacing: 0px; -webkit-text-stroke-width: 0px; text-decoration-thickness: initial; text-decoration-style: initial; text-decoration-color: initial; box-sizing: unset; line-height: var(--jp-content-heading-line-height); margin-top: calc(0.5 * var(--jp-content-heading-margin-top)); margin-bottom: calc(0.5 * var(--jp-content-heading-margin-bottom)); font-size: var(--jp-content-font-size3); color: rgba(0, 0, 0, 0.87); font-family: -apple-system, BlinkMacSystemFont, &amp;quot;Segoe UI&amp;quot;, Helvetica, Arial, sans-serif, &amp;quot;Apple Color Emoji&amp;quot;, &amp;quot;Segoe UI Emoji&amp;quot;, &amp;quot;Segoe UI Symbol&amp;quot;; text-align: start; background-color: rgb(255, 255, 255);&quot; id=&quot;TASK-2:-Calculate-the-number-and-occurrence-of-each-orbit&quot;&gt;&lt;br&gt;&lt;/h3&gt;" style="text;whiteSpace=wrap;html=1;fontColor=#EEEEEE;labelBackgroundColor=none;" vertex="1" parent="1">
          <mxGeometry x="830" y="300" width="320" height="40" as="geometry" />
        </mxCell>
        <mxCell id="xhZJJGkNVvbvQg2QOkUd-14" value="&lt;h3 style=&quot;border-color: var(--border-color); font-style: normal; font-variant-ligatures: normal; font-variant-caps: normal; letter-spacing: normal; orphans: 2; text-indent: 0px; text-transform: none; widows: 2; word-spacing: 0px; -webkit-text-stroke-width: 0px; text-decoration-thickness: initial; text-decoration-style: initial; text-decoration-color: initial; box-sizing: unset; line-height: var(--jp-content-heading-line-height); margin-top: calc(0.5 * var(--jp-content-heading-margin-top)); margin-bottom: calc(0.5 * var(--jp-content-heading-margin-bottom)); font-size: var(--jp-content-font-size3); color: rgba(0, 0, 0, 0.87); font-family: -apple-system, BlinkMacSystemFont, &amp;quot;Segoe UI&amp;quot;, Helvetica, Arial, sans-serif, &amp;quot;Apple Color Emoji&amp;quot;, &amp;quot;Segoe UI Emoji&amp;quot;, &amp;quot;Segoe UI Symbol&amp;quot;; text-align: start; background-color: rgb(255, 255, 255);&quot; id=&quot;TASK-2:-Calculate-the-number-and-occurrence-of-each-orbit&quot;&gt;&lt;br&gt;&lt;/h3&gt;" style="text;whiteSpace=wrap;html=1;fontColor=#EEEEEE;labelBackgroundColor=none;" vertex="1" parent="1">
          <mxGeometry x="420" y="520" width="320" height="40" as="geometry" />
        </mxCell>
        <mxCell id="xhZJJGkNVvbvQg2QOkUd-15" value="&lt;h3 style=&quot;border-color: var(--border-color); font-style: normal; font-variant-ligatures: normal; font-variant-caps: normal; letter-spacing: normal; orphans: 2; text-indent: 0px; text-transform: none; widows: 2; word-spacing: 0px; -webkit-text-stroke-width: 0px; text-decoration-thickness: initial; text-decoration-style: initial; text-decoration-color: initial; box-sizing: unset; line-height: var(--jp-content-heading-line-height); margin-top: calc(0.5 * var(--jp-content-heading-margin-top)); margin-bottom: calc(0.5 * var(--jp-content-heading-margin-bottom)); font-size: var(--jp-content-font-size3); color: rgba(0, 0, 0, 0.87); font-family: -apple-system, BlinkMacSystemFont, &amp;quot;Segoe UI&amp;quot;, Helvetica, Arial, sans-serif, &amp;quot;Apple Color Emoji&amp;quot;, &amp;quot;Segoe UI Emoji&amp;quot;, &amp;quot;Segoe UI Symbol&amp;quot;; text-align: start; background-color: rgb(255, 255, 255);&quot; id=&quot;TASK-2:-Calculate-the-number-and-occurrence-of-each-orbit&quot;&gt;&lt;br&gt;&lt;/h3&gt;" style="text;whiteSpace=wrap;html=1;fontColor=#EEEEEE;labelBackgroundColor=none;" vertex="1" parent="1">
          <mxGeometry x="210" y="520" width="320" height="40" as="geometry" />
        </mxCell>
      </root>
    </mxGraphModel>
  </diagram>
</mxfile>
